<mxfile host="app.diagrams.net" agent="Mozilla/5.0 (Macintosh; Intel Mac OS X 10_15_7) AppleWebKit/537.36 (KHTML, like Gecko) Chrome/128.0.0.0 Safari/537.36" version="26.0.16">
  <diagram id="kgpKYQtTHZ0yAKxKKP6v" name="Page-1">
    <mxGraphModel dx="794" dy="483" grid="1" gridSize="10" guides="1" tooltips="1" connect="1" arrows="1" fold="1" page="1" pageScale="1" pageWidth="850" pageHeight="1100" math="0" shadow="0">
      <root>
        <mxCell id="0" />
        <mxCell id="1" parent="0" />
        <mxCell id="3nuBFxr9cyL0pnOWT2aG-1" value="PERK UP WITH A LATTE" style="shape=table;childLayout=tableLayout;startSize=40;collapsible=0;recursiveResize=0;expand=0;fillColor=none;fontStyle=1" parent="1" vertex="1">
          <mxGeometry x="100" y="70" width="670" height="1370" as="geometry" />
        </mxCell>
        <mxCell id="3nuBFxr9cyL0pnOWT2aG-3" value="Customer" style="shape=tableRow;horizontal=0;swimlaneHead=0;swimlaneBody=0;top=0;left=0;bottom=0;right=0;fillColor=none;points=[[0,0.5],[1,0.5]];portConstraint=eastwest;startSize=40;collapsible=0;recursiveResize=0;expand=0;fontStyle=1;" parent="3nuBFxr9cyL0pnOWT2aG-1" vertex="1">
          <mxGeometry y="40" width="670" height="1330" as="geometry" />
        </mxCell>
        <mxCell id="3nuBFxr9cyL0pnOWT2aG-4" value="FE" style="swimlane;swimlaneHead=0;swimlaneBody=0;connectable=0;fillColor=none;startSize=40;collapsible=0;recursiveResize=0;expand=0;fontStyle=1;" parent="3nuBFxr9cyL0pnOWT2aG-3" vertex="1">
          <mxGeometry x="40" width="160" height="1330" as="geometry">
            <mxRectangle width="160" height="1330" as="alternateBounds" />
          </mxGeometry>
        </mxCell>
        <mxCell id="3nuBFxr9cyL0pnOWT2aG-5" style="edgeStyle=orthogonalEdgeStyle;rounded=0;orthogonalLoop=1;jettySize=auto;html=1;" parent="3nuBFxr9cyL0pnOWT2aG-4" source="3nuBFxr9cyL0pnOWT2aG-6" target="3nuBFxr9cyL0pnOWT2aG-7" edge="1">
          <mxGeometry relative="1" as="geometry" />
        </mxCell>
        <mxCell id="3nuBFxr9cyL0pnOWT2aG-6" value="Start" style="rounded=1;whiteSpace=wrap;html=1;arcSize=50;" parent="3nuBFxr9cyL0pnOWT2aG-4" vertex="1">
          <mxGeometry x="36" y="60" width="90" height="40" as="geometry" />
        </mxCell>
        <mxCell id="3nuBFxr9cyL0pnOWT2aG-7" value="进入页面" style="rounded=0;whiteSpace=wrap;html=1;" parent="3nuBFxr9cyL0pnOWT2aG-4" vertex="1">
          <mxGeometry x="36" y="120" width="90" height="40" as="geometry" />
        </mxCell>
        <mxCell id="83-cvZ2OEZh-le51dASl-3" style="edgeStyle=orthogonalEdgeStyle;rounded=0;orthogonalLoop=1;jettySize=auto;html=1;exitX=0.5;exitY=1;exitDx=0;exitDy=0;entryX=0.5;entryY=0;entryDx=0;entryDy=0;" edge="1" parent="3nuBFxr9cyL0pnOWT2aG-4" source="3nuBFxr9cyL0pnOWT2aG-17" target="83-cvZ2OEZh-le51dASl-2">
          <mxGeometry relative="1" as="geometry" />
        </mxCell>
        <mxCell id="3nuBFxr9cyL0pnOWT2aG-17" value="进入生图页" style="rounded=0;whiteSpace=wrap;html=1;" parent="3nuBFxr9cyL0pnOWT2aG-4" vertex="1">
          <mxGeometry x="36" y="190" width="90" height="40" as="geometry" />
        </mxCell>
        <mxCell id="83-cvZ2OEZh-le51dASl-7" style="edgeStyle=orthogonalEdgeStyle;rounded=0;orthogonalLoop=1;jettySize=auto;html=1;exitX=0.5;exitY=1;exitDx=0;exitDy=0;entryX=0.5;entryY=0;entryDx=0;entryDy=0;" edge="1" parent="3nuBFxr9cyL0pnOWT2aG-4" source="83-cvZ2OEZh-le51dASl-2">
          <mxGeometry relative="1" as="geometry">
            <mxPoint x="74" y="330" as="sourcePoint" />
            <mxPoint x="74" y="360" as="targetPoint" />
          </mxGeometry>
        </mxCell>
        <mxCell id="83-cvZ2OEZh-le51dASl-51" value="是" style="edgeLabel;html=1;align=center;verticalAlign=middle;resizable=0;points=[];" vertex="1" connectable="0" parent="83-cvZ2OEZh-le51dASl-7">
          <mxGeometry x="-0.2667" y="4" relative="1" as="geometry">
            <mxPoint x="-2" as="offset" />
          </mxGeometry>
        </mxCell>
        <mxCell id="83-cvZ2OEZh-le51dASl-2" value="&lt;div&gt;是否&lt;/div&gt;需要加载广告" style="rhombus;whiteSpace=wrap;html=1;" vertex="1" parent="3nuBFxr9cyL0pnOWT2aG-4">
          <mxGeometry x="36" y="250" width="80" height="80" as="geometry" />
        </mxCell>
        <mxCell id="83-cvZ2OEZh-le51dASl-6" value="初始化再生成次数N=X" style="rounded=0;whiteSpace=wrap;html=1;" vertex="1" parent="3nuBFxr9cyL0pnOWT2aG-4">
          <mxGeometry x="31" y="360" width="90" height="40" as="geometry" />
        </mxCell>
        <mxCell id="83-cvZ2OEZh-le51dASl-8" value="用户点击看广告" style="rounded=0;whiteSpace=wrap;html=1;" vertex="1" parent="3nuBFxr9cyL0pnOWT2aG-4">
          <mxGeometry x="31" y="460" width="90" height="40" as="geometry" />
        </mxCell>
        <mxCell id="83-cvZ2OEZh-le51dASl-27" value="校验是否能生图" style="rounded=0;whiteSpace=wrap;html=1;" vertex="1" parent="3nuBFxr9cyL0pnOWT2aG-4">
          <mxGeometry x="31" y="530" width="90" height="40" as="geometry" />
        </mxCell>
        <mxCell id="83-cvZ2OEZh-le51dASl-32" value="否" style="edgeStyle=orthogonalEdgeStyle;rounded=0;orthogonalLoop=1;jettySize=auto;html=1;exitX=0.5;exitY=1;exitDx=0;exitDy=0;entryX=0.5;entryY=0;entryDx=0;entryDy=0;" edge="1" parent="3nuBFxr9cyL0pnOWT2aG-4" source="83-cvZ2OEZh-le51dASl-29" target="83-cvZ2OEZh-le51dASl-31">
          <mxGeometry relative="1" as="geometry" />
        </mxCell>
        <mxCell id="83-cvZ2OEZh-le51dASl-29" value="有生图机会&lt;div&gt;&lt;/div&gt;" style="rhombus;whiteSpace=wrap;html=1;" vertex="1" parent="3nuBFxr9cyL0pnOWT2aG-4">
          <mxGeometry x="36" y="610" width="80" height="80" as="geometry" />
        </mxCell>
        <mxCell id="83-cvZ2OEZh-le51dASl-33" style="edgeStyle=orthogonalEdgeStyle;rounded=0;orthogonalLoop=1;jettySize=auto;html=1;exitX=0;exitY=0.5;exitDx=0;exitDy=0;entryX=0;entryY=0.5;entryDx=0;entryDy=0;" edge="1" parent="3nuBFxr9cyL0pnOWT2aG-4" source="83-cvZ2OEZh-le51dASl-31" target="83-cvZ2OEZh-le51dASl-27">
          <mxGeometry relative="1" as="geometry" />
        </mxCell>
        <mxCell id="83-cvZ2OEZh-le51dASl-35" style="edgeStyle=orthogonalEdgeStyle;rounded=0;orthogonalLoop=1;jettySize=auto;html=1;exitX=0.5;exitY=1;exitDx=0;exitDy=0;entryX=0.5;entryY=0;entryDx=0;entryDy=0;" edge="1" parent="3nuBFxr9cyL0pnOWT2aG-4" source="83-cvZ2OEZh-le51dASl-31" target="83-cvZ2OEZh-le51dASl-34">
          <mxGeometry relative="1" as="geometry" />
        </mxCell>
        <mxCell id="83-cvZ2OEZh-le51dASl-31" value="展示重试弹窗" style="rounded=0;whiteSpace=wrap;html=1;" vertex="1" parent="3nuBFxr9cyL0pnOWT2aG-4">
          <mxGeometry x="31" y="730" width="90" height="40" as="geometry" />
        </mxCell>
        <mxCell id="83-cvZ2OEZh-le51dASl-37" style="edgeStyle=orthogonalEdgeStyle;rounded=0;orthogonalLoop=1;jettySize=auto;html=1;exitX=0.5;exitY=1;exitDx=0;exitDy=0;entryX=0.5;entryY=0;entryDx=0;entryDy=0;" edge="1" parent="3nuBFxr9cyL0pnOWT2aG-4" source="83-cvZ2OEZh-le51dASl-34" target="83-cvZ2OEZh-le51dASl-36">
          <mxGeometry relative="1" as="geometry" />
        </mxCell>
        <mxCell id="83-cvZ2OEZh-le51dASl-34" value="&lt;div&gt;将上一次生图任务数据缓存到另一个数组&lt;/div&gt;" style="rounded=0;whiteSpace=wrap;html=1;" vertex="1" parent="3nuBFxr9cyL0pnOWT2aG-4">
          <mxGeometry x="31" y="791" width="90" height="50" as="geometry" />
        </mxCell>
        <mxCell id="83-cvZ2OEZh-le51dASl-36" value="重置生图状态&lt;div&gt;重新生图&lt;/div&gt;" style="rounded=0;whiteSpace=wrap;html=1;" vertex="1" parent="3nuBFxr9cyL0pnOWT2aG-4">
          <mxGeometry x="31" y="870" width="90" height="50" as="geometry" />
        </mxCell>
        <mxCell id="83-cvZ2OEZh-le51dASl-110" style="edgeStyle=orthogonalEdgeStyle;rounded=0;orthogonalLoop=1;jettySize=auto;html=1;exitX=0;exitY=0.5;exitDx=0;exitDy=0;entryX=0;entryY=0.5;entryDx=0;entryDy=0;" edge="1" parent="3nuBFxr9cyL0pnOWT2aG-4" source="83-cvZ2OEZh-le51dASl-38" target="83-cvZ2OEZh-le51dASl-40">
          <mxGeometry relative="1" as="geometry" />
        </mxCell>
        <mxCell id="83-cvZ2OEZh-le51dASl-38" value="生图成功" style="rounded=0;whiteSpace=wrap;html=1;" vertex="1" parent="3nuBFxr9cyL0pnOWT2aG-4">
          <mxGeometry x="31" y="950" width="90" height="50" as="geometry" />
        </mxCell>
        <mxCell id="83-cvZ2OEZh-le51dASl-44" value="是" style="edgeStyle=orthogonalEdgeStyle;rounded=0;orthogonalLoop=1;jettySize=auto;html=1;exitX=0.5;exitY=1;exitDx=0;exitDy=0;entryX=0.5;entryY=0;entryDx=0;entryDy=0;" edge="1" parent="3nuBFxr9cyL0pnOWT2aG-4" source="83-cvZ2OEZh-le51dASl-40" target="83-cvZ2OEZh-le51dASl-41">
          <mxGeometry relative="1" as="geometry" />
        </mxCell>
        <mxCell id="83-cvZ2OEZh-le51dASl-45" style="edgeStyle=orthogonalEdgeStyle;rounded=0;orthogonalLoop=1;jettySize=auto;html=1;exitX=1;exitY=0.5;exitDx=0;exitDy=0;entryX=1;entryY=0.5;entryDx=0;entryDy=0;" edge="1" parent="3nuBFxr9cyL0pnOWT2aG-4" source="83-cvZ2OEZh-le51dASl-40" target="83-cvZ2OEZh-le51dASl-2">
          <mxGeometry relative="1" as="geometry" />
        </mxCell>
        <mxCell id="83-cvZ2OEZh-le51dASl-46" value="否，重新生图" style="edgeLabel;html=1;align=center;verticalAlign=middle;resizable=0;points=[];" vertex="1" connectable="0" parent="83-cvZ2OEZh-le51dASl-45">
          <mxGeometry x="-0.8317" y="1" relative="1" as="geometry">
            <mxPoint x="1" y="19" as="offset" />
          </mxGeometry>
        </mxCell>
        <mxCell id="83-cvZ2OEZh-le51dASl-40" value="保存生图状态&lt;div&gt;&lt;/div&gt;" style="rhombus;whiteSpace=wrap;html=1;" vertex="1" parent="3nuBFxr9cyL0pnOWT2aG-4">
          <mxGeometry x="36" y="1154.0100000000002" width="80" height="80" as="geometry" />
        </mxCell>
        <mxCell id="83-cvZ2OEZh-le51dASl-41" value="End" style="rounded=1;whiteSpace=wrap;html=1;arcSize=50;" vertex="1" parent="3nuBFxr9cyL0pnOWT2aG-4">
          <mxGeometry x="31" y="1274.0100000000002" width="90" height="40" as="geometry" />
        </mxCell>
        <mxCell id="83-cvZ2OEZh-le51dASl-55" style="edgeStyle=orthogonalEdgeStyle;rounded=0;orthogonalLoop=1;jettySize=auto;html=1;exitX=0;exitY=0.5;exitDx=0;exitDy=0;entryX=0;entryY=0.5;entryDx=0;entryDy=0;" edge="1" parent="3nuBFxr9cyL0pnOWT2aG-4" source="83-cvZ2OEZh-le51dASl-52" target="83-cvZ2OEZh-le51dASl-8">
          <mxGeometry relative="1" as="geometry" />
        </mxCell>
        <mxCell id="83-cvZ2OEZh-le51dASl-52" value="仅成功状态展示广告入口" style="rounded=0;whiteSpace=wrap;html=1;" vertex="1" parent="3nuBFxr9cyL0pnOWT2aG-4">
          <mxGeometry x="31" y="410" width="90" height="40" as="geometry" />
        </mxCell>
        <mxCell id="83-cvZ2OEZh-le51dASl-112" style="edgeStyle=orthogonalEdgeStyle;rounded=0;orthogonalLoop=1;jettySize=auto;html=1;exitX=0.5;exitY=1;exitDx=0;exitDy=0;entryX=0.5;entryY=0;entryDx=0;entryDy=0;" edge="1" parent="3nuBFxr9cyL0pnOWT2aG-4" source="83-cvZ2OEZh-le51dASl-56" target="83-cvZ2OEZh-le51dASl-109">
          <mxGeometry relative="1" as="geometry" />
        </mxCell>
        <mxCell id="83-cvZ2OEZh-le51dASl-56" value="生图失败" style="rounded=0;whiteSpace=wrap;html=1;" vertex="1" parent="3nuBFxr9cyL0pnOWT2aG-4">
          <mxGeometry x="30.5" y="1030" width="90" height="40" as="geometry" />
        </mxCell>
        <mxCell id="83-cvZ2OEZh-le51dASl-109" value="点击重试" style="rounded=0;whiteSpace=wrap;html=1;" vertex="1" parent="3nuBFxr9cyL0pnOWT2aG-4">
          <mxGeometry x="30.5" y="1090" width="90" height="40" as="geometry" />
        </mxCell>
        <mxCell id="83-cvZ2OEZh-le51dASl-114" style="edgeStyle=orthogonalEdgeStyle;rounded=0;orthogonalLoop=1;jettySize=auto;html=1;exitX=1;exitY=0.5;exitDx=0;exitDy=0;entryX=1;entryY=0.75;entryDx=0;entryDy=0;fillColor=#f8cecc;strokeColor=#b85450;" edge="1" parent="3nuBFxr9cyL0pnOWT2aG-4" source="83-cvZ2OEZh-le51dASl-109" target="83-cvZ2OEZh-le51dASl-27">
          <mxGeometry relative="1" as="geometry">
            <mxPoint x="179" y="1090" as="targetPoint" />
          </mxGeometry>
        </mxCell>
        <mxCell id="83-cvZ2OEZh-le51dASl-4" style="edgeStyle=orthogonalEdgeStyle;rounded=0;orthogonalLoop=1;jettySize=auto;html=1;exitX=1;exitY=0.5;exitDx=0;exitDy=0;entryX=1;entryY=0.5;entryDx=0;entryDy=0;" edge="1" parent="3nuBFxr9cyL0pnOWT2aG-4" source="83-cvZ2OEZh-le51dASl-6" target="83-cvZ2OEZh-le51dASl-52">
          <mxGeometry relative="1" as="geometry">
            <mxPoint x="488.75" y="360" as="targetPoint" />
            <Array as="points">
              <mxPoint x="150" y="380" />
              <mxPoint x="150" y="430" />
            </Array>
          </mxGeometry>
        </mxCell>
        <mxCell id="83-cvZ2OEZh-le51dASl-5" value="是" style="edgeLabel;html=1;align=center;verticalAlign=middle;resizable=0;points=[];" vertex="1" connectable="0" parent="83-cvZ2OEZh-le51dASl-4">
          <mxGeometry x="-0.1941" y="-2" relative="1" as="geometry">
            <mxPoint x="1" y="-2" as="offset" />
          </mxGeometry>
        </mxCell>
        <mxCell id="3nuBFxr9cyL0pnOWT2aG-8" value="后端" style="swimlane;swimlaneHead=0;swimlaneBody=0;connectable=0;fillColor=none;startSize=40;collapsible=0;recursiveResize=0;expand=0;fontStyle=1;" parent="3nuBFxr9cyL0pnOWT2aG-3" vertex="1">
          <mxGeometry x="200" width="270" height="1330" as="geometry">
            <mxRectangle width="270" height="1330" as="alternateBounds" />
          </mxGeometry>
        </mxCell>
        <mxCell id="3nuBFxr9cyL0pnOWT2aG-9" value="调用/speakmaster/user/detail根据abResList判断是否需要显示广告入口&lt;div&gt;+再生成次数X&lt;/div&gt;" style="rounded=0;whiteSpace=wrap;html=1;" parent="3nuBFxr9cyL0pnOWT2aG-8" vertex="1">
          <mxGeometry x="39" y="105" width="200" height="70" as="geometry" />
        </mxCell>
        <mxCell id="83-cvZ2OEZh-le51dASl-16" value="调用/speakmaster/pictask/check&lt;div&gt;sceneId: props.state.sceneId.toString(), taskType: &#39;5&#39;,&lt;/div&gt;&lt;div&gt;adsId: adUniqueId&lt;/div&gt;&lt;div&gt;adsType: 1&lt;/div&gt;" style="rounded=0;whiteSpace=wrap;html=1;" vertex="1" parent="3nuBFxr9cyL0pnOWT2aG-8">
          <mxGeometry x="19" y="530" width="240" height="80" as="geometry" />
        </mxCell>
        <mxCell id="83-cvZ2OEZh-le51dASl-47" value="调用/speakmaster/pictask/create&lt;div&gt;创建生图任务&lt;br&gt;&lt;div&gt;type: &#39;avatar&#39;,&lt;/div&gt;&lt;div&gt;img: &#39;&#39;,&lt;/div&gt;&lt;div&gt;sex: options.sex,&lt;/div&gt;&lt;div&gt;styles: options.styles,&lt;/div&gt;&lt;div&gt;eventPrompt: &#39;&#39;,&lt;/div&gt;&lt;div&gt;sceneId: options.sceneId,&lt;/div&gt;&lt;div&gt;adsId: options.adsId,&lt;/div&gt;&lt;div&gt;originImg: options.originImg&lt;br&gt;&lt;/div&gt;&lt;/div&gt;&lt;div&gt;adsType: 1&lt;br&gt;&lt;/div&gt;&lt;div&gt;adsId:&amp;nbsp;&lt;span style=&quot;background-color: transparent; color: light-dark(rgb(0, 0, 0), rgb(255, 255, 255));&quot;&gt;adUniqueId&lt;/span&gt;&lt;br&gt;&lt;/div&gt;" style="rounded=0;whiteSpace=wrap;html=1;" vertex="1" parent="3nuBFxr9cyL0pnOWT2aG-8">
          <mxGeometry x="19" y="750" width="240" height="200" as="geometry" />
        </mxCell>
        <mxCell id="83-cvZ2OEZh-le51dASl-49" value="调用/speakmaster/pictask/detail&lt;div&gt;获取生图状态&lt;br&gt;&lt;div&gt;taskId: &#39;&#39;&lt;/div&gt;&lt;/div&gt;" style="rounded=0;whiteSpace=wrap;html=1;" vertex="1" parent="3nuBFxr9cyL0pnOWT2aG-8">
          <mxGeometry x="19" y="970" width="240" height="60" as="geometry" />
        </mxCell>
        <mxCell id="83-cvZ2OEZh-le51dASl-42" style="edgeStyle=orthogonalEdgeStyle;rounded=0;orthogonalLoop=1;jettySize=auto;html=1;exitX=0.5;exitY=1;exitDx=0;exitDy=0;entryX=0.5;entryY=0;entryDx=0;entryDy=0;" edge="1" parent="3nuBFxr9cyL0pnOWT2aG-8" source="83-cvZ2OEZh-le51dASl-47" target="83-cvZ2OEZh-le51dASl-49">
          <mxGeometry relative="1" as="geometry" />
        </mxCell>
        <mxCell id="3nuBFxr9cyL0pnOWT2aG-11" value="端" style="swimlane;swimlaneHead=0;swimlaneBody=0;connectable=0;fillColor=none;startSize=40;collapsible=0;recursiveResize=0;expand=0;fontStyle=1;" parent="3nuBFxr9cyL0pnOWT2aG-3" vertex="1">
          <mxGeometry x="470" width="200" height="1330" as="geometry">
            <mxRectangle width="200" height="1330" as="alternateBounds" />
          </mxGeometry>
        </mxCell>
        <mxCell id="83-cvZ2OEZh-le51dASl-11" value="调用showAd展示广告&lt;div&gt;placeid: &#39;新增的&#39;,&lt;/div&gt;&lt;div&gt;adScene: 2&lt;br&gt;&lt;/div&gt;" style="rounded=0;whiteSpace=wrap;html=1;" vertex="1" parent="3nuBFxr9cyL0pnOWT2aG-11">
          <mxGeometry x="17.5" y="450" width="165" height="60" as="geometry" />
        </mxCell>
        <mxCell id="3nuBFxr9cyL0pnOWT2aG-2" value="" style="edgeStyle=orthogonalEdgeStyle;rounded=0;orthogonalLoop=1;jettySize=auto;html=1;entryX=0;entryY=0.5;entryDx=0;entryDy=0;" parent="3nuBFxr9cyL0pnOWT2aG-3" source="3nuBFxr9cyL0pnOWT2aG-7" target="3nuBFxr9cyL0pnOWT2aG-9" edge="1">
          <mxGeometry relative="1" as="geometry" />
        </mxCell>
        <mxCell id="3nuBFxr9cyL0pnOWT2aG-25" value="" style="edgeStyle=orthogonalEdgeStyle;rounded=0;orthogonalLoop=1;jettySize=auto;html=1;entryX=1;entryY=0.5;entryDx=0;entryDy=0;exitX=0.5;exitY=1;exitDx=0;exitDy=0;" parent="3nuBFxr9cyL0pnOWT2aG-3" source="3nuBFxr9cyL0pnOWT2aG-9" target="3nuBFxr9cyL0pnOWT2aG-17" edge="1">
          <mxGeometry relative="1" as="geometry" />
        </mxCell>
        <mxCell id="83-cvZ2OEZh-le51dASl-13" style="edgeStyle=orthogonalEdgeStyle;rounded=0;orthogonalLoop=1;jettySize=auto;html=1;exitX=1;exitY=0.5;exitDx=0;exitDy=0;entryX=0;entryY=0.25;entryDx=0;entryDy=0;" edge="1" parent="3nuBFxr9cyL0pnOWT2aG-3" source="83-cvZ2OEZh-le51dASl-8" target="83-cvZ2OEZh-le51dASl-11">
          <mxGeometry relative="1" as="geometry" />
        </mxCell>
        <mxCell id="83-cvZ2OEZh-le51dASl-14" style="edgeStyle=orthogonalEdgeStyle;rounded=0;orthogonalLoop=1;jettySize=auto;html=1;exitX=0;exitY=0.75;exitDx=0;exitDy=0;entryX=0.5;entryY=0;entryDx=0;entryDy=0;" edge="1" parent="3nuBFxr9cyL0pnOWT2aG-3" source="83-cvZ2OEZh-le51dASl-11" target="83-cvZ2OEZh-le51dASl-27">
          <mxGeometry relative="1" as="geometry">
            <mxPoint x="150" y="530" as="targetPoint" />
            <Array as="points">
              <mxPoint x="488" y="510" />
              <mxPoint x="116" y="510" />
            </Array>
          </mxGeometry>
        </mxCell>
        <mxCell id="83-cvZ2OEZh-le51dASl-15" value="返回adUniqueId" style="edgeLabel;html=1;align=center;verticalAlign=middle;resizable=0;points=[];" vertex="1" connectable="0" parent="83-cvZ2OEZh-le51dASl-14">
          <mxGeometry x="-0.2043" y="2" relative="1" as="geometry">
            <mxPoint as="offset" />
          </mxGeometry>
        </mxCell>
        <mxCell id="83-cvZ2OEZh-le51dASl-28" style="edgeStyle=orthogonalEdgeStyle;rounded=0;orthogonalLoop=1;jettySize=auto;html=1;exitX=1;exitY=0.5;exitDx=0;exitDy=0;entryX=0;entryY=0.25;entryDx=0;entryDy=0;" edge="1" parent="3nuBFxr9cyL0pnOWT2aG-3" source="83-cvZ2OEZh-le51dASl-27" target="83-cvZ2OEZh-le51dASl-16">
          <mxGeometry relative="1" as="geometry" />
        </mxCell>
        <mxCell id="83-cvZ2OEZh-le51dASl-30" style="edgeStyle=orthogonalEdgeStyle;rounded=0;orthogonalLoop=1;jettySize=auto;html=1;exitX=0;exitY=0.75;exitDx=0;exitDy=0;entryX=0.5;entryY=0;entryDx=0;entryDy=0;" edge="1" parent="3nuBFxr9cyL0pnOWT2aG-3" source="83-cvZ2OEZh-le51dASl-16" target="83-cvZ2OEZh-le51dASl-29">
          <mxGeometry relative="1" as="geometry" />
        </mxCell>
        <mxCell id="83-cvZ2OEZh-le51dASl-48" style="edgeStyle=orthogonalEdgeStyle;rounded=0;orthogonalLoop=1;jettySize=auto;html=1;exitX=1;exitY=0.25;exitDx=0;exitDy=0;entryX=0;entryY=0.25;entryDx=0;entryDy=0;" edge="1" parent="3nuBFxr9cyL0pnOWT2aG-3" source="83-cvZ2OEZh-le51dASl-36" target="83-cvZ2OEZh-le51dASl-47">
          <mxGeometry relative="1" as="geometry" />
        </mxCell>
        <mxCell id="83-cvZ2OEZh-le51dASl-50" style="edgeStyle=orthogonalEdgeStyle;rounded=0;orthogonalLoop=1;jettySize=auto;html=1;exitX=0;exitY=0.25;exitDx=0;exitDy=0;entryX=1;entryY=0.5;entryDx=0;entryDy=0;" edge="1" parent="3nuBFxr9cyL0pnOWT2aG-3" source="83-cvZ2OEZh-le51dASl-49" target="83-cvZ2OEZh-le51dASl-38">
          <mxGeometry relative="1" as="geometry" />
        </mxCell>
        <mxCell id="83-cvZ2OEZh-le51dASl-111" style="edgeStyle=orthogonalEdgeStyle;rounded=0;orthogonalLoop=1;jettySize=auto;html=1;exitX=0;exitY=0.75;exitDx=0;exitDy=0;entryX=0.5;entryY=0;entryDx=0;entryDy=0;" edge="1" parent="3nuBFxr9cyL0pnOWT2aG-3" source="83-cvZ2OEZh-le51dASl-49" target="83-cvZ2OEZh-le51dASl-56">
          <mxGeometry relative="1" as="geometry">
            <Array as="points">
              <mxPoint x="116" y="1015" />
            </Array>
          </mxGeometry>
        </mxCell>
      </root>
    </mxGraphModel>
  </diagram>
</mxfile>
